<?xml version="1.0" encoding="utf-8"?>
<!-- Generator: Adobe Illustrator 23.0.2, SVG Export Plug-In . SVG Version: 6.00 Build 0)  -->
<svg version="1.1" id="Layer_1" xmlns="http://www.w3.org/2000/svg" xmlns:xlink="http://www.w3.org/1999/xlink" x="0px" y="0px"
	 viewBox="0 0 586.54 116.67" style="enable-background:new 0 0 586.54 116.67;" xml:space="preserve">
<style type="text/css">
	.st0{fill:#FFFFFF;}
</style>
<g>
	<g>
		<path class="st0" d="M83.65,70.7h7.23V29.58h-7.23V17.83h30.19c5.06,0,8.22,0.18,11.84,1.36c6.78,2.35,11.3,7.95,11.3,15.46
			c0,5.6-2.62,11.03-7.68,13.83v0.18c7.68,2.35,10.3,8.68,10.3,14.82c0,9.76-6.78,16.18-14.37,18.07c-3.43,0.81-6.15,0.9-9.67,0.9
			h-31.9V70.7z M115.02,42.86c3.98,0,5.69-2.8,5.69-6.24c0-2.26-0.9-4.7-2.98-5.6c-1.18-0.45-2.26-0.54-3.98-0.54h-6.69v12.38
			H115.02z M116.37,69.8c1.18,0,2.17-0.18,2.98-0.54c2.53-1.08,3.89-4.07,3.89-7.05c0-3.8-2.17-6.69-6.78-6.69h-9.4V69.8H116.37z"/>
		<path class="st0" d="M169.61,34.82c13.92,0,21.69,9.58,21.69,22.51c0,1.54-0.36,4.7-0.36,4.7h-29.55
			c1.17,5.97,5.87,8.59,10.85,8.59c6.87,0,13.1-4.43,13.1-4.43l5.69,10.85c0,0-7.5,6.51-20.06,6.51c-16.63,0-25.58-12.02-25.58-24.4
			C145.39,45.48,154.61,34.82,169.61,34.82z M175.13,53.44c0-3.71-2.44-6.87-5.87-6.87c-4.52,0-6.69,3.25-7.5,6.87H175.13z"/>
		<path class="st0" d="M197.73,71.15h5.87V49.19c0-1.27-0.72-1.99-1.99-1.99h-4.34V35.9h14.82c4.25,0,6.42,2.08,6.42,5.24v1.54
			c0,0.45-0.09,1.08-0.09,1.08h0.18c0,0,4.07-8.95,15.82-8.95c8.77,0,15.73,4.34,15.73,17.44v18.89h5.87v11.3h-21.51V55.15
			c0-4.34-1.72-6.15-5.24-6.15c-6.96,0-10.03,7.23-10.03,13.74v8.41h5.87v11.3h-27.38V71.15z"/>
		<path class="st0" d="M284.41,34.82c13.92,0,21.69,9.58,21.69,22.51c0,1.54-0.36,4.7-0.36,4.7h-29.55
			c1.17,5.97,5.87,8.59,10.85,8.59c6.87,0,13.11-4.43,13.11-4.43l5.69,10.85c0,0-7.5,6.51-20.06,6.51
			c-16.63,0-25.58-12.02-25.58-24.4C260.19,45.48,269.4,34.82,284.41,34.82z M289.92,53.44c0-3.71-2.44-6.87-5.87-6.87
			c-4.52,0-6.69,3.25-7.5,6.87H289.92z"/>
		<path class="st0" d="M312.79,70.7h7.23V30.48h-7.23V17.83h30.64v12.65h-7.23V69.8h13.92v-9.49h13.56v22.14h-50.88V70.7z"/>
		<path class="st0" d="M376.97,88.87c3.25,0,6.42-0.9,7.68-3.8l0.18-0.45L369.47,47.2h-5.24V35.9h25.58v11.3h-4.52l5.69,17.26
			c0.9,2.8,1.08,6.05,1.08,6.05h0.36c0,0,0.45-3.25,1.44-6.05l5.51-17.26h-4.25V35.9h24.13v11.3h-4.79l-15,39.32
			c-4.25,11.12-12.65,14.91-21.69,14.91c-8.04,0-13.29-3.61-13.29-3.61l4.79-11.12C369.29,86.7,372,88.87,376.97,88.87z"/>
		<path class="st0" d="M423.88,71.15h5.88V49.19c0-1.27-0.72-1.99-1.99-1.99h-4.34V35.9h14.82c4.25,0,6.42,2.08,6.42,5.24v1.54
			c0,0.45-0.09,1.08-0.09,1.08h0.18c0,0,4.07-8.95,15.82-8.95c8.77,0,15.73,4.34,15.73,17.44v18.89h5.88v11.3h-21.51V55.15
			c0-4.34-1.72-6.15-5.24-6.15c-6.96,0-10.03,7.23-10.03,13.74v8.41h5.88v11.3h-27.39V71.15z"/>
		<path class="st0" d="M486.62,71.15h5.87V29.12h-6.33v-11.3h21.96v35.34h5.33l4.88-5.97h-4.43V35.9h24.22v11.3h-5.69l-8.04,9.76
			v0.18c0,0,1.99,0.99,3.71,4.16l4.61,8.31c0.72,1.27,1.63,1.54,3.43,1.54h2.26v11.3h-11.39c-3.34,0-5.06-0.54-6.69-3.52
			l-7.14-13.19c-0.81-1.54-2.53-1.54-3.71-1.54h-1.36v6.96h3.34v11.3h-24.85V71.15z"/>
		<path class="st0" d="M544.3,29.83h1.31v-7.28h-1.39v1.65h-2.45v-3.94h10.61v3.94h-2.45v-1.65h-1.39v7.28h1.31v2.13h-5.54V29.83z"
			/>
		<path class="st0" d="M553.33,29.83h1.28l0.62-7.44h-1.31v-2.13h4.59l1.96,5.79c0.24,0.72,0.33,1.21,0.33,1.21h0.03
			c0,0,0.08-0.49,0.33-1.21l1.96-5.79h4.6v2.13h-1.31l0.62,7.44h1.27v2.13h-5.3v-2.13h1.16l-0.28-4.2
			c-0.03-0.49,0.07-1.31,0.07-1.31h-0.07c0,0-0.13,0.75-0.31,1.24l-1.54,4.27h-2.45l-1.54-4.27c-0.18-0.49-0.31-1.24-0.31-1.24
			h-0.07c0,0,0.1,0.82,0.07,1.31l-0.28,4.2h1.16v2.13h-5.3V29.83z"/>
	</g>
	<g>
		<path class="st0" d="M45.49,17.61c-18.52,0-33.59,15.07-33.59,33.59v7.75h15.96V51.2h0.01c0-9.72,7.91-17.62,17.63-17.62h30.76
			V17.61H45.49z"/>
		<path class="st0" d="M60.29,40.94v7.92h-0.01c0,9.72-7.91,17.62-17.63,17.62H11.9v15.96h30.76c18.46,0,33.49-14.98,33.58-33.42
			h0.01v-8.09H60.29z"/>
	</g>
</g>
</svg>
